HIERARCHY
ROOT Torso
{
    OFFSET 0 0 0
    CHANNELS 6 Xposition Yposition Zposition Zrotation Yrotation Xrotation
    JOINT LHip1 
    {   
        OFFSET 0.01 -0.06 0
        CHANNELS 3 Zrotation Yrotation Xrotation
        JOINT LHip2
        {
            OFFSET 0 -0.055 -0.055
            CHANNELS 3 Zrotation Yrotation Xrotation
            JOINT LHip3
            {
                OFFSET -0.01 0 0
                CHANNELS 3 Zrotation Yrotation Xrotation
                JOINT LThigh
                {
                    OFFSET 0 0 0.01
                    CHANNELS 3 Zrotation Yrotation Xrotation
                    JOINT LLeg
                    {
                        OFFSET -0.014 -0.120 -0.01
                        CHANNELS 3 Zrotation Yrotation Xrotation
                        JOINT LFoot
                        {
                            OFFSET 0.01 -0.1 0
                            CHANNELS 3 Zrotation Yrotation Xrotation
                            End Site
                            {
                                OFFSET -0.090 -0.035 0
                            }
                        }
                    }
                }
            }
        }
    }
    JOINT RHip1 
    {   
        OFFSET 0.01 -0.06 0
        CHANNELS 3 Zrotation Yrotation Xrotation
        JOINT RHip2
        {
            OFFSET 0 -0.055 0.055
            CHANNELS 3 Zrotation Yrotation Xrotation
            JOINT RHip3
            {
                OFFSET -0.01 0 0
                CHANNELS 3 Zrotation Yrotation Xrotation
                JOINT RThigh
                {
                    OFFSET 0 0 0.01
                    CHANNELS 3 Zrotation Yrotation Xrotation
                    JOINT RLeg
                    {
                        OFFSET -0.014 -0.120 -0.01
                        CHANNELS 3 Zrotation Yrotation Xrotation
                        JOINT RFoot
                        {
                            OFFSET 0.01 -0.1 0
                            CHANNELS 3 Zrotation Yrotation Xrotation
                            End Site
                            {
                                OFFSET -0.090 -0.035 0
                            }
                        }
                    }
                }
            }
        }
    }
    JOINT Neck
    {
        OFFSET 0 0.04 0
        CHANNELS 3 Zrotation Yrotation Xrotation
        JOINT Head
        {
            OFFSET 0 0.1 0
            CHANNELS 3 Zrotation Yrotation Xrotation
            End Site 
            {
                OFFSET 0 0.07 0
            }
        }
    }
    JOINT LUpperarm
    {
        OFFSET 0 0.075 -0.098
        CHANNELS 3 Zrotation Yrotation Xrotation
        JOINT LLowerarm
        {
            OFFSET -0.09 0.009 0
            CHANNELS 3 Zrotation Yrotation Xrotation
            End Site
            {
                OFFSET -0.105 0 0
            }
        }
    }
    JOINT RUpperarm
    {
        OFFSET 0 0.075 0.098
        CHANNELS 3 Zrotation Yrotation Xrotation
        JOINT RLowerarm
        {
            OFFSET -0.09 0.009 0
            CHANNELS 3 Zrotation Yrotation Xrotation
            End Site
            {
                OFFSET -0.105 0 0
            }
        }
    }
}
MOTION
Frames: 31
Frame Time: 0.04
0 0 0 0 0 0 0 -0.0 0 0 0.0 0 47.68 0 0 0 0 0 -67.38 0 0 22.46 0.0 0 0 -0.0 0 0 -0.0 0 47.68 0 0 0 0 0 -67.38 0 0 22.46 -0.0 0 0 -0.0 0 -0.0 0 0 -0.0 0 -0.0 0 0.0 0.0 -0.0 0 0.0 0 -0.0 -0.0
0 0 0 0 0 0 0 -0.0 0 0 0.0 0 47.23 0 0 0 0 0 -66.69 0 0 22.23 0.0 0 0 -0.0 0 0 -0.0 0 47.23 0 0 0 0 0 -66.69 0 0 22.23 -0.0 0 0 0.0 0 -0.0 0 0 -0.0 0 -0.0 0 0.0 0.0 -0.0 0 0.0 0 -0.0 -0.0
0 0 0 0 0 0 0 -0.0 0 0 0.0 0 46.77 0 0 0 0 0 -66.0 0 0 22.0 0.0 0 0 -0.0 0 0 -0.0 0 46.77 0 0 0 0 0 -66.0 0 0 22.0 -0.0 0 0 0.0 0 -0.0 0 0 -0.0 0 -0.0 0 0.0 0.0 -0.0 0 0.0 0 -0.0 -0.0
0 0 0 0 0 0 0 -0.0 0 0 0.0 0 46.31 0 0 0 0 0 -65.32 0 0 21.77 0.0 0 0 -0.0 0 0 -0.0 0 46.31 0 0 0 0 0 -65.32 0 0 21.77 -0.0 0 0 0.0 0 -0.0 0 0 -0.0 0 -0.0 0 0.0 0.0 -0.0 0 0.0 0 -0.0 -0.0
0 0 0 0 0 0 0 -0.0 0 0 0.0 0 45.85 0 0 0 0 0 -64.63 0 0 21.54 0.0 0 0 -0.0 0 0 -0.0 0 45.85 0 0 0 0 0 -64.63 0 0 21.54 -0.0 0 0 0.0 0 -0.0 0 0 -0.0 0 -0.0 0 0.0 0.0 -0.0 0 0.0 0 -0.0 -0.0
0 0 0 0 0 0 0 -0.0 0 0 0.0 0 45.39 0 0 0 0 0 -63.94 0 0 21.31 0.0 0 0 -0.0 0 0 -0.0 0 45.39 0 0 0 0 0 -63.94 0 0 21.31 -0.0 0 0 0.0 0 -0.0 0 0 -0.0 0 -0.0 0 0.0 0.0 -0.0 0 0.0 0 -0.0 -0.0
0 0 0 0 0 0 0 -0.0 0 0 0.0 0 44.93 0 0 0 0 0 -63.25 0 0 21.08 0.0 0 0 -0.0 0 0 -0.0 0 44.93 0 0 0 0 0 -63.25 0 0 21.08 -0.0 0 0 0.0 0 -0.0 0 0 -0.0 0 -0.0 0 0.0 0.0 -0.0 0 0.0 0 -0.0 -0.0
0 0 0 0 0 0 0 -0.0 0 0 0.0 0 44.47 0 0 0 0 0 -62.57 0 0 20.86 0.0 0 0 -0.0 0 0 -0.0 0 44.47 0 0 0 0 0 -62.57 0 0 20.86 -0.0 0 0 0.0 0 -0.0 0 0 -0.0 0 -0.0 0 0.0 0.0 -0.0 0 0.0 0 -0.0 -0.0
0 0 0 0 0 0 0 -0.0 0 0 0.0 0 44.02 0 0 0 0 0 -61.88 0 0 20.63 0.0 0 0 -0.0 0 0 -0.0 0 44.02 0 0 0 0 0 -61.88 0 0 20.63 -0.0 0 0 0.0 0 -0.0 0 0 -0.0 0 -0.0 0 0.0 0.0 -0.0 0 0.0 0 -0.0 -0.0
0 0 0 0 0 0 0 -0.0 0 0 0.0 0 43.56 0 0 0 0 0 -61.19 0 0 20.4 0.0 0 0 -0.0 0 0 -0.0 0 43.56 0 0 0 0 0 -61.19 0 0 20.4 -0.0 0 0 0.0 0 -0.0 0 0 -0.0 0 -0.0 0 0.0 0.0 -0.0 0 0.0 0 -0.0 -0.0
0 0 0 0 0 0 0 -0.0 0 0 0.0 0 43.1 0 0 0 0 0 -60.5 0 0 20.17 0.0 0 0 -0.0 0 0 -0.0 0 43.1 0 0 0 0 0 -60.5 0 0 20.17 -0.0 0 0 0.0 0 -0.0 0 0 -0.0 0 -0.0 0 0.0 0.0 -0.0 0 0.0 0 -0.0 -0.0
0 0 0 0 0 0 0 -0.0 0 0 -0.0 0 42.64 0 0 0 0 0 -59.82 0 0 19.94 0.0 0 0 -0.0 0 0 -0.0 0 42.64 0 0 0 0 0 -59.82 0 0 19.94 -0.0 0 0 0.0 0 -0.0 0 0 -0.0 0 -0.0 0 0.0 0.0 -0.0 0 0.0 0 -0.0 -0.0
0 0 0 0 0 0 0 -0.0 0 0 0.0 0 42.18 0 0 0 0 0 -59.13 0 0 19.71 0.0 0 0 -0.0 0 0 -0.0 0 42.18 0 0 0 0 0 -59.13 0 0 19.71 -0.0 0 0 0.0 0 -0.0 0 0 -0.0 0 -0.0 0 0.0 0.0 -0.0 0 0.0 0 -0.0 -0.0
0 0 0 0 0 0 0 -0.0 0 0 0.0 0 41.72 0 0 0 0 0 -58.44 0 0 19.48 0.0 0 0 -0.0 0 0 -0.0 0 41.72 0 0 0 0 0 -58.44 0 0 19.48 -0.0 0 0 0.0 0 -0.0 0 0 -0.0 0 -0.0 0 0.0 0.0 -0.0 0 0.0 0 -0.0 -0.0
0 0 0 0 0 0 0 -0.0 0 0 0.0 0 41.27 0 0 0 0 0 -57.75 0 0 19.25 0.0 0 0 -0.0 0 0 -0.0 0 41.27 0 0 0 0 0 -57.75 0 0 19.25 -0.0 0 0 0.0 0 -0.0 0 0 -0.0 0 -0.0 0 0.0 0.0 -0.0 0 0.0 0 -0.0 -0.0
0 0 0 0 0 0 0 -0.0 0 0 0.0 0 40.81 0 0 0 0 0 -57.07 0 0 19.02 0.0 0 0 -0.0 0 0 -0.0 0 40.81 0 0 0 0 0 -57.07 0 0 19.02 -0.0 0 0 0.0 0 -0.0 0 0 -0.0 0 -0.0 0 0.0 0.0 -0.0 0 0.0 0 -0.0 -0.0
0 0 0 0 0 0 0 -0.0 0 0 0.0 0 40.35 0 0 0 0 0 -56.38 0 0 18.79 0.0 0 0 -0.0 0 0 -0.0 0 40.35 0 0 0 0 0 -56.38 0 0 18.79 -0.0 0 0 0.0 0 -0.0 0 0 -0.0 0 -0.0 0 0.0 0.0 -0.0 0 0.0 0 -0.0 -0.0
0 0 0 0 0 0 0 -0.0 0 0 0.0 0 39.89 0 0 0 0 0 -55.69 0 0 18.56 0.0 0 0 -0.0 0 0 -0.0 0 39.89 0 0 0 0 0 -55.69 0 0 18.56 -0.0 0 0 0.0 0 -0.0 0 0 -0.0 0 -0.0 0 0.0 0.0 -0.0 0 0.0 0 -0.0 -0.0
0 0 0 0 0 0 0 -0.0 0 0 0.0 0 39.43 0 0 0 0 0 -55.0 0 0 18.33 0.0 0 0 -0.0 0 0 -0.0 0 39.43 0 0 0 0 0 -55.0 0 0 18.33 -0.0 0 0 0.0 0 -0.0 0 0 -0.0 0 -0.0 0 0.0 0.0 -0.0 0 0.0 0 -0.0 -0.0
0 0 0 0 0 0 0 -0.0 0 0 0.0 0 38.97 0 0 0 0 0 -54.32 0 0 18.11 0.0 0 0 -0.0 0 0 -0.0 0 38.97 0 0 0 0 0 -54.32 0 0 18.11 -0.0 0 0 0.0 0 -0.0 0 0 -0.0 0 -0.0 0 0.0 0.0 -0.0 0 0.0 0 -0.0 -0.0
0 0 0 0 0 0 0 -0.0 0 0 0.0 0 38.52 0 0 0 0 0 -53.63 0 0 17.88 0.0 0 0 -0.0 0 0 -0.0 0 38.52 0 0 0 0 0 -53.63 0 0 17.88 -0.0 0 0 0.0 0 -0.0 0 0 -0.0 0 -0.0 0 0.0 0.0 -0.0 0 0.0 0 -0.0 -0.0
0 0 0 0 0 0 0 -0.0 0 0 0.0 0 38.06 0 0 0 0 0 -52.94 0 0 17.65 0.0 0 0 -0.0 0 0 -0.0 0 38.06 0 0 0 0 0 -52.94 0 0 17.65 -0.0 0 0 0.0 0 -0.0 0 0 -0.0 0 -0.0 0 0.0 0.0 -0.0 0 0.0 0 -0.0 -0.0
0 0 0 0 0 0 0 -0.0 0 0 -0.0 0 37.6 0 0 0 0 0 -52.25 0 0 17.42 0.0 0 0 -0.0 0 0 -0.0 0 37.6 0 0 0 0 0 -52.25 0 0 17.42 -0.0 0 0 0.0 0 -0.0 0 0 -0.0 0 -0.0 0 0.0 0.0 -0.0 0 0.0 0 -0.0 -0.0
0 0 0 0 0 0 0 -0.0 0 0 0.0 0 37.14 0 0 0 0 0 -51.57 0 0 17.19 0.0 0 0 -0.0 0 0 -0.0 0 37.14 0 0 0 0 0 -51.57 0 0 17.19 -0.0 0 0 0.0 0 -0.0 0 0 -0.0 0 -0.0 0 0.0 0.0 -0.0 0 0.0 0 -0.0 -0.0
0 0 0 0 0 0 0 -0.0 0 0 0.0 0 36.68 0 0 0 0 0 -50.88 0 0 16.96 0.0 0 0 -0.0 0 0 -0.0 0 36.68 0 0 0 0 0 -50.88 0 0 16.96 -0.0 0 0 0.0 0 -0.0 0 0 -0.0 0 -0.0 0 0.0 0.0 -0.0 0 0.0 0 -0.0 -0.0
0 0 0 0 0 0 0 -0.0 0 0 -0.0 0 36.22 0 0 0 0 0 -50.19 0 0 16.73 0.0 0 0 -0.0 0 0 -0.0 0 36.22 0 0 0 0 0 -50.19 0 0 16.73 -0.0 0 0 0.0 0 -0.0 0 0 -0.0 0 -0.0 0 0.0 0.0 -0.0 0 0.0 0 -0.0 -0.0
0 0 0 0 0 0 0 -0.0 0 0 -0.0 0 35.77 0 0 0 0 0 -49.5 0 0 16.5 0.0 0 0 -0.0 0 0 -0.0 0 35.77 0 0 0 0 0 -49.5 0 0 16.5 -0.0 0 0 0.0 0 -0.0 0 0 -0.0 0 -0.0 0 0.0 0.0 -0.0 0 0.0 0 -0.0 -0.0
0 0 0 0 0 0 0 -0.0 0 0 -0.0 0 35.31 0 0 0 0 0 -48.82 0 0 16.27 0.0 0 0 -0.0 0 0 -0.0 0 35.31 0 0 0 0 0 -48.82 0 0 16.27 -0.0 0 0 0.0 0 -0.0 0 0 -0.0 0 -0.0 0 0.0 0.0 -0.0 0 0.0 0 -0.0 -0.0
0 0 0 0 0 0 0 -0.0 0 0 -0.0 0 34.85 0 0 0 0 0 -48.13 0 0 16.04 0.0 0 0 -0.0 0 0 -0.0 0 34.85 0 0 0 0 0 -48.13 0 0 16.04 -0.0 0 0 0.0 0 -0.0 0 0 -0.0 0 -0.0 0 0.0 0.0 -0.0 0 0.0 0 -0.0 -0.0
0 0 0 0 0 0 0 -0.0 0 0 -0.0 0 34.39 0 0 0 0 0 -47.44 0 0 15.81 0.0 0 0 -0.0 0 0 -0.0 0 34.39 0 0 0 0 0 -47.44 0 0 15.81 -0.0 0 0 0.0 0 -0.0 0 0 -0.0 0 -0.0 0 0.0 0.0 -0.0 0 0.0 0 -0.0 -0.0
0 0 0 0 0 0 0 -0.0 0 0 -0.0 0 33.93 0 0 0 0 0 -46.75 0 0 15.58 0.0 0 0 -0.0 0 0 -0.0 0 33.93 0 0 0 0 0 -46.75 0 0 15.58 -0.0 0 0 0.0 0 -0.0 0 0 -0.0 0 -0.0 0 0.0 0.0 -0.0 0 0.0 0 -0.0 -0.0
